<?xml version="1.0" encoding="UTF-8"?>
<svg id="_レイヤー_1" data-name="レイヤー 1" xmlns="http://www.w3.org/2000/svg" viewBox="0 0 960 960">
  <defs>
    <style>
      .cls-1 {
        fill: #79a7d9;
      }
    </style>
  </defs>
  <circle cx="480" cy="480" r="460" fill="white"/>
  <g>
    <path class="cls-1" d="M360.52,621.27c-6.24,7.31-23.97.79-32-1.67-53.18-16.28-115.44-64.85-134.15-118.47-37.28-106.88,6.31-218.29,101.4-275.82,8.65-5.23,49.82-26.44,57.55-26.34,4.16.06,13.84,5.32,20.89,5.9,4.03.33,9.82.22,13.86-.19,2.68-.27,15.15-3.87,15.86-3.33.55.42-3.1,10.73-3.34,13.52-4.01,46.7,45.52,61.18,75.53,25.48,1.52-1.81,2.11-5.07,2.34-5.24.7-.54,9.39,11.4,11.61,13.4,31.39,28.12,70.21,6.91,67.57-34.98-.15-2.39-2.82-11.74-2.36-12.18.66-.64,15.05,3.21,18.06,3.46,8.64.72,15.97.05,24.16-2.57,2.68-.86,6.43-4.13,8.2-4.13,5.19-.01,42.44,17.9,49.31,21.66,97.84,53.55,144.5,158.97,115.3,268.2-16.31,61.02-78.69,112.94-137.58,131.34-9.43,2.95-28.67,10.65-34.85-.15-5.84-10.2,4.79-12.02,9.1-18.63,11.49-17.64,3.1-37.49-11.54-49.95-50.95-43.4-178.11-43.76-229.82-1.65-14.31,11.65-27.15,33.69-14.1,51.15,3.45,4.61,18.72,9.79,9,21.18ZM391.94,351.09c0-16.02-12.99-29.02-29.02-29.02s-29.02,12.99-29.02,29.02,12.99,29.02,29.02,29.02,29.02-12.99,29.02-29.02ZM626,351.07c0-16.02-12.99-29.01-29.01-29.01s-29.01,12.99-29.01,29.01,12.99,29.01,29.01,29.01,29.01-12.99,29.01-29.01ZM429.28,354.07c-9.39,1.12-9.73,10.87-6.94,18.06,12.34,31.78,79.16,32.33,102.57,14.8,8.31-6.22,23.19-25.9,7.95-32.2-11.44-4.73-12.14,7.73-15.97,12.54-12.08,15.16-64.26,15.43-75.03-1.86-3.25-5.21-2.41-12.55-12.58-11.34Z"/>
    <path class="cls-1" d="M551.2,186.21c-5.35-.82-19.55-12.35-18.96.27.3,6.4,4.77,12.71,4.29,21.09-1.67,29.58-31.79,25.35-45.77,6.48-3.87-5.22-7.37-20.06-15.88-12.18-3.34,3.1-6.13,12.61-12.19,18.07-20.66,18.6-43.48,8.26-39.99-20.2.68-5.52,6.95-13.68,2.28-17.69-4.21-3.62-9.27,1.65-13.79,2.68-6.57,1.5-13.34,1.7-20.05,1.48.15-1.59,1.64-1.89,2.84-2.38,7.22-2.94,33.17-7.6,42.17-9.06,24.38-3.94,55.5-4.36,79.98-1.2,12.51,1.61,37.84,6.25,49.42,10,1.96.64,3.06-.52,2.54,2.65-5.25-.56-11.84.78-16.88,0Z"/>
    <g>
      <path class="cls-1" d="M344.75,702.12c-.67.41-5.9,11.18-7.85,13.68-21.57,27.53-63.2,29.39-87.25,3.64-2.68-2.87-9.24-15.64-10.05-16.14-.88-.54-6.22-.42-8.72-1.19-32.23-9.95-40.98-38.16-33.81-69.1,2.08-8.96,11.41-30.96,23.26-27.48,7.12,2.09,5.69,13.17,7.19,18.45,20.85,73.22,160.2,38.43,155.44-36.7-.47-7.46-8.91-23.66,2.04-25.98s12.95,7.81,15.47,15.46c14.82,45.11,4.13,111.8-48.4,125.1-2.14.54-5.91-.6-7.31.26Z"/>
      <path class="cls-1" d="M568.94,561.27c3.76-.76,9.42,1.54,10.54,5.29,1.61,5.37-2.6,11.41-3.23,17.23-7.07,65.5,94.02,105.03,140.09,64.42,13.33-11.75,12.34-19.87,16.16-35.06,4.77-18.96,21.61-.32,25.91,9.63,12.51,28.98,5.98,65.7-25.88,77.7-3.48,1.31-11.73,2.38-13.12,3.18-1.08.63-6.01,10.17-7.63,12.16-24.23,29.79-67.03,28.96-90.78-1.04-1.89-2.38-5.83-11.47-7.49-12.3-2.26-1.13-11.65-1.82-16.31-3.48-44.55-15.89-55.38-92.68-36.35-130.62,1.27-2.53,5.32-6.55,8.09-7.12Z"/>
      <path class="cls-1" d="M434.27,731.09c-.6.64-1.69,13.56-3.01,17.37-6.58,19.08-28.34,34.87-48.73,32.5-3.2-.37-9.64-3.34-11.57-3.07s-7.15,5.56-10.44,6.92c-15.89,6.58-30.85,1.28-41.52-11.33-3.76-4.44-13.49-18-12.95-23.26,1.1-10.59,13.45-6.64,20.35-7.67,69.36-10.45,106.85-94.07,105.54-157.65-.21-10.38-10.79-33.38,6.39-32.08,8.47.64,15.42,19.25,18.52,26.93,7.69,19.03,24.67,69.94,13.3,87.68-1.81,2.83-8.24,5.6-8.68,8.24-.79,4.81,1.33,15.73.66,22.16-1.37,13.18-7.91,26.37-20.6,31.79-2.05.88-7.01,1.2-7.26,1.47Z"/>
      <path class="cls-1" d="M520.05,551.93c5.13-.94,9.99,4.13,10.56,8.86.53,4.43-2.79,12.03-3.25,17.18-5.9,65.43,34.88,154.91,106.52,164.68,6.87.94,22.76-2.17,18.67,11.7-.44,1.49-8.01,13-9.49,14.99-11.28,15.03-25.42,23.51-44.33,15.45-3.28-1.4-9.83-6.85-10.51-7.02-2.53-.61-8.19,2.76-11.51,3.21-20.58,2.81-42.53-13.12-49.05-32.23-1.21-3.54-2.56-15.65-3.18-16.61-.77-1.19-7.68-2.66-10.01-3.96-12.62-7.06-17.85-22.18-18.53-36.17-.23-4.77,1.96-14.36.95-17.24-.56-1.6-6.22-4.54-7.97-7.17-12.25-18.47,7.46-77.63,16.91-97.19,2.4-4.98,8.63-17.44,14.23-18.47Z"/>
    </g>
  </g>
  <path class="cls-1" d="M480.01,959.68c-64.8,0-127.66-12.69-186.84-37.72-57.16-24.18-108.49-58.78-152.57-102.86-44.08-44.08-78.69-95.41-102.86-152.57C12.7,607.34.01,544.48.01,479.68s12.69-127.66,37.72-186.84c24.18-57.16,58.78-108.49,102.86-152.57,44.08-44.08,95.41-78.69,152.57-102.86C352.35,12.38,415.21-.32,480.01-.32s127.66,12.69,186.84,37.72c57.16,24.18,108.49,58.78,152.57,102.86,44.08,44.08,78.69,95.41,102.86,152.57,25.03,59.18,37.72,122.04,37.72,186.84s-12.69,127.66-37.72,186.84c-24.18,57.16-58.78,108.49-102.86,152.57-44.08,44.08-95.41,78.69-152.57,102.86-59.18,25.03-122.04,37.72-186.84,37.72ZM480.01,17.68c-62.37,0-122.88,12.21-179.83,36.3-55.01,23.27-104.42,56.58-146.86,99.02-42.43,42.43-75.75,91.84-99.02,146.86-24.09,56.95-36.3,117.46-36.3,179.83s12.21,122.88,36.3,179.83c23.27,55.01,56.58,104.42,99.02,146.86,42.43,42.43,91.84,75.75,146.86,99.02,56.95,24.09,117.46,36.3,179.83,36.3s122.88-12.21,179.83-36.3c55.01-23.27,104.42-56.58,146.86-99.02,42.43-42.43,75.75-91.84,99.01-146.86,24.09-56.95,36.3-117.46,36.3-179.83s-12.21-122.88-36.3-179.83c-23.27-55.01-56.58-104.42-99.01-146.86-42.43-42.43-91.84-75.75-146.86-99.02-56.95-24.09-117.46-36.3-179.83-36.3Z"/>
</svg>